<svg width="98" height="53" viewBox="0 0 98 53" fill="none" xmlns="http://www.w3.org/2000/svg">
<path d="M64.7143 37L58.7143 42.1429L57 28L70.7143 31.8571L64.7143 37ZM64.7143 37L72 46" stroke="white" stroke-width="1.7"/>
<path d="M7.00586 11.1738H5.31641V9.97266H6.9375C7.65365 9.97266 8.23307 9.87174 8.67578 9.66992C9.11849 9.4681 9.44076 9.18815 9.64258 8.83008C9.8444 8.47201 9.94531 8.05859 9.94531 7.58984C9.94531 7.14062 9.83464 6.73047 9.61328 6.35938C9.39193 5.98177 9.05013 5.68229 8.58789 5.46094C8.12565 5.23307 7.52995 5.11914 6.80078 5.11914C6.25391 5.11914 5.75911 5.22331 5.31641 5.43164C4.8737 5.63346 4.52214 5.91667 4.26172 6.28125C4.0013 6.63932 3.87109 7.05273 3.87109 7.52148H1.98633C1.98633 6.91602 2.11328 6.3724 2.36719 5.89062C2.62109 5.40234 2.9694 4.98893 3.41211 4.65039C3.85482 4.30534 4.36589 4.04167 4.94531 3.85938C5.53125 3.67708 6.14974 3.58594 6.80078 3.58594C7.5625 3.58594 8.2526 3.67383 8.87109 3.84961C9.48958 4.01888 10.0202 4.27279 10.4629 4.61133C10.9056 4.94987 11.2441 5.36979 11.4785 5.87109C11.7129 6.3724 11.8301 6.95508 11.8301 7.61914C11.8301 8.10742 11.7161 8.56641 11.4883 8.99609C11.2604 9.42578 10.9349 9.80339 10.5117 10.1289C10.0885 10.4544 9.58073 10.7116 8.98828 10.9004C8.39583 11.0827 7.73503 11.1738 7.00586 11.1738ZM5.31641 10.3438H7.00586C7.80664 10.3438 8.51953 10.4251 9.14453 10.5879C9.76953 10.7507 10.2969 10.9883 10.7266 11.3008C11.1562 11.6133 11.4818 12.0007 11.7031 12.4629C11.931 12.9186 12.0449 13.4427 12.0449 14.0352C12.0449 14.6992 11.9147 15.2884 11.6543 15.8027C11.4004 16.3171 11.0391 16.7533 10.5703 17.1113C10.1016 17.4694 9.54492 17.7396 8.90039 17.9219C8.26237 18.1042 7.5625 18.1953 6.80078 18.1953C6.1888 18.1953 5.58333 18.1172 4.98438 17.9609C4.39193 17.7982 3.85482 17.5508 3.37305 17.2188C2.89128 16.8802 2.50391 16.4505 2.21094 15.9297C1.92448 15.4089 1.78125 14.7839 1.78125 14.0547H3.66602C3.66602 14.5299 3.79622 14.9661 4.05664 15.3633C4.32357 15.7604 4.69141 16.0794 5.16016 16.3203C5.62891 16.5547 6.17578 16.6719 6.80078 16.6719C7.51693 16.6719 8.1224 16.5612 8.61719 16.3398C9.11849 16.112 9.49935 15.8027 9.75977 15.4121C10.0267 15.015 10.1602 14.569 10.1602 14.0742C10.1602 13.638 10.0885 13.2604 9.94531 12.9414C9.80859 12.6159 9.60352 12.349 9.33008 12.1406C9.06315 11.9323 8.72786 11.7793 8.32422 11.6816C7.92708 11.5775 7.46484 11.5254 6.9375 11.5254H5.31641V10.3438ZM20.4824 16.1934V10.7539C20.4824 10.3372 20.3978 9.97591 20.2285 9.66992C20.0658 9.35742 19.8184 9.11654 19.4863 8.94727C19.1543 8.77799 18.7441 8.69336 18.2559 8.69336C17.8001 8.69336 17.3997 8.77148 17.0547 8.92773C16.7161 9.08398 16.4492 9.28906 16.2539 9.54297C16.0651 9.79688 15.9707 10.0703 15.9707 10.3633H14.1641C14.1641 9.98568 14.2617 9.61133 14.457 9.24023C14.6523 8.86914 14.9323 8.53385 15.2969 8.23438C15.668 7.92839 16.1107 7.6875 16.625 7.51172C17.1458 7.32943 17.7253 7.23828 18.3633 7.23828C19.1315 7.23828 19.8086 7.36849 20.3945 7.62891C20.987 7.88932 21.4492 8.2832 21.7812 8.81055C22.1198 9.33138 22.2891 9.98568 22.2891 10.7734V15.6953C22.2891 16.0469 22.3184 16.4212 22.377 16.8184C22.4421 17.2155 22.5365 17.5573 22.6602 17.8438V18H20.7754C20.6842 17.7917 20.6126 17.515 20.5605 17.1699C20.5085 16.8184 20.4824 16.4928 20.4824 16.1934ZM20.7949 11.5938L20.8145 12.8633H18.9883C18.474 12.8633 18.015 12.9056 17.6113 12.9902C17.2077 13.0684 16.8691 13.1888 16.5957 13.3516C16.3223 13.5143 16.1139 13.7194 15.9707 13.9668C15.8275 14.2077 15.7559 14.4909 15.7559 14.8164C15.7559 15.1484 15.8307 15.4512 15.9805 15.7246C16.1302 15.998 16.3548 16.2161 16.6543 16.3789C16.9603 16.5352 17.3346 16.6133 17.7773 16.6133C18.3307 16.6133 18.819 16.4961 19.2422 16.2617C19.6654 16.0273 20.0007 15.7409 20.248 15.4023C20.502 15.0638 20.6387 14.735 20.6582 14.416L21.4297 15.2852C21.3841 15.5586 21.2604 15.8613 21.0586 16.1934C20.8568 16.5254 20.5866 16.8444 20.248 17.1504C19.916 17.4499 19.5189 17.7005 19.0566 17.9023C18.6009 18.0977 18.0866 18.1953 17.5137 18.1953C16.7975 18.1953 16.1693 18.0553 15.6289 17.7754C15.0951 17.4954 14.6784 17.1211 14.3789 16.6523C14.0859 16.1771 13.9395 15.6465 13.9395 15.0605C13.9395 14.4941 14.0501 13.9961 14.2715 13.5664C14.4928 13.1302 14.8118 12.7689 15.2285 12.4824C15.6452 12.1895 16.1465 11.9681 16.7324 11.8184C17.3184 11.6686 17.9727 11.5938 18.6953 11.5938H20.7949ZM27.0352 7.43359H28.8418L28.6855 11.3887C28.6465 12.3913 28.5326 13.2572 28.3438 13.9863C28.1549 14.7155 27.9141 15.3372 27.6211 15.8516C27.3281 16.3594 26.9993 16.7858 26.6348 17.1309C26.2767 17.4759 25.9056 17.7656 25.5215 18H24.623L24.6719 16.5254L25.043 16.5156C25.2578 16.2617 25.4661 16.0013 25.668 15.7344C25.8698 15.4609 26.0553 15.1387 26.2246 14.7676C26.3939 14.39 26.5339 13.931 26.6445 13.3906C26.7617 12.8438 26.8366 12.1764 26.8691 11.3887L27.0352 7.43359ZM27.4844 7.43359H33.8418V18H32.0352V9.10352H27.4844V7.43359ZM24.2129 16.5156H35.1992V21.1152H33.3926V18H26.0195V21.1152H24.2031L24.2129 16.5156ZM43.4316 16.1934V10.7539C43.4316 10.3372 43.347 9.97591 43.1777 9.66992C43.015 9.35742 42.7676 9.11654 42.4355 8.94727C42.1035 8.77799 41.6934 8.69336 41.2051 8.69336C40.7493 8.69336 40.349 8.77148 40.0039 8.92773C39.6654 9.08398 39.3984 9.28906 39.2031 9.54297C39.0143 9.79688 38.9199 10.0703 38.9199 10.3633H37.1133C37.1133 9.98568 37.2109 9.61133 37.4062 9.24023C37.6016 8.86914 37.8815 8.53385 38.2461 8.23438C38.6172 7.92839 39.0599 7.6875 39.5742 7.51172C40.0951 7.32943 40.6745 7.23828 41.3125 7.23828C42.0807 7.23828 42.7578 7.36849 43.3438 7.62891C43.9362 7.88932 44.3984 8.2832 44.7305 8.81055C45.069 9.33138 45.2383 9.98568 45.2383 10.7734V15.6953C45.2383 16.0469 45.2676 16.4212 45.3262 16.8184C45.3913 17.2155 45.4857 17.5573 45.6094 17.8438V18H43.7246C43.6335 17.7917 43.5618 17.515 43.5098 17.1699C43.4577 16.8184 43.4316 16.4928 43.4316 16.1934ZM43.7441 11.5938L43.7637 12.8633H41.9375C41.4232 12.8633 40.9642 12.9056 40.5605 12.9902C40.1569 13.0684 39.8184 13.1888 39.5449 13.3516C39.2715 13.5143 39.0632 13.7194 38.9199 13.9668C38.7767 14.2077 38.7051 14.4909 38.7051 14.8164C38.7051 15.1484 38.7799 15.4512 38.9297 15.7246C39.0794 15.998 39.304 16.2161 39.6035 16.3789C39.9095 16.5352 40.2839 16.6133 40.7266 16.6133C41.2799 16.6133 41.7682 16.4961 42.1914 16.2617C42.6146 16.0273 42.9499 15.7409 43.1973 15.4023C43.4512 15.0638 43.5879 14.735 43.6074 14.416L44.3789 15.2852C44.3333 15.5586 44.2096 15.8613 44.0078 16.1934C43.806 16.5254 43.5358 16.8444 43.1973 17.1504C42.8652 17.4499 42.4681 17.7005 42.0059 17.9023C41.5501 18.0977 41.0358 18.1953 40.4629 18.1953C39.7467 18.1953 39.1185 18.0553 38.5781 17.7754C38.0443 17.4954 37.6276 17.1211 37.3281 16.6523C37.0352 16.1771 36.8887 15.6465 36.8887 15.0605C36.8887 14.4941 36.9993 13.9961 37.2207 13.5664C37.4421 13.1302 37.7611 12.7689 38.1777 12.4824C38.5944 12.1895 39.0957 11.9681 39.6816 11.8184C40.2676 11.6686 40.9219 11.5938 41.6445 11.5938H43.7441ZM52.2305 7.43359V18H50.4141V7.43359H52.2305ZM55.7754 7.43359V8.89844H46.9375V7.43359H55.7754ZM59.0371 11.0664H62.2109C63.0638 11.0664 63.7832 11.2161 64.3691 11.5156C64.9551 11.8086 65.3978 12.2155 65.6973 12.7363C66.0033 13.2507 66.1562 13.8366 66.1562 14.4941C66.1562 14.9824 66.0716 15.4414 65.9023 15.8711C65.7331 16.2943 65.4792 16.6654 65.1406 16.9844C64.8086 17.3034 64.3952 17.554 63.9004 17.7363C63.4121 17.9121 62.849 18 62.2109 18H57.7188V7.43359H59.5254V16.5156H62.2109C62.7318 16.5156 63.1484 16.4212 63.4609 16.2324C63.7734 16.0436 63.998 15.7995 64.1348 15.5C64.2715 15.2005 64.3398 14.888 64.3398 14.5625C64.3398 14.2435 64.2715 13.931 64.1348 13.625C63.998 13.319 63.7734 13.0651 63.4609 12.8633C63.1484 12.6549 62.7318 12.5508 62.2109 12.5508H59.0371V11.0664Z" fill="white"/>
<path d="M1.5332 41V30.4336H3.33984V39.5156H8.20312V30.4336H10.0195V41H1.5332ZM11.2695 39.5156L11.0938 44.1348H9.48242V41H8.10547V39.5156H11.2695ZM18.1934 36.3516H14.7266L14.707 34.9062H17.5391C18.099 34.9062 18.5645 34.8509 18.9355 34.7402C19.3132 34.6296 19.5964 34.4635 19.7852 34.2422C19.974 34.0208 20.0684 33.7474 20.0684 33.4219C20.0684 33.168 20.013 32.9466 19.9023 32.7578C19.7982 32.5625 19.6387 32.403 19.4238 32.2793C19.209 32.1491 18.9421 32.0547 18.623 31.9961C18.3105 31.931 17.9427 31.8984 17.5195 31.8984H15.2051V41H13.3984V30.4336H17.5195C18.1901 30.4336 18.7923 30.4922 19.3262 30.6094C19.8665 30.7266 20.3255 30.9056 20.7031 31.1465C21.0872 31.3809 21.3802 31.6803 21.582 32.0449C21.7839 32.4095 21.8848 32.8392 21.8848 33.334C21.8848 33.653 21.8197 33.9557 21.6895 34.2422C21.5592 34.5286 21.3672 34.7826 21.1133 35.0039C20.8594 35.2253 20.5469 35.4076 20.1758 35.5508C19.8047 35.6875 19.3783 35.7754 18.8965 35.8145L18.1934 36.3516ZM18.1934 41H14.0723L14.9707 39.5352H18.1934C18.6947 39.5352 19.1113 39.4733 19.4434 39.3496C19.7754 39.2194 20.0228 39.0371 20.1855 38.8027C20.3548 38.5618 20.4395 38.2754 20.4395 37.9434C20.4395 37.6113 20.3548 37.3281 20.1855 37.0938C20.0228 36.8529 19.7754 36.6706 19.4434 36.5469C19.1113 36.4167 18.6947 36.3516 18.1934 36.3516H15.4492L15.4688 34.9062H18.8965L19.5508 35.4531C20.1302 35.4987 20.6217 35.6419 21.0254 35.8828C21.429 36.1237 21.735 36.4297 21.9434 36.8008C22.1517 37.1654 22.2559 37.5625 22.2559 37.9922C22.2559 38.487 22.1615 38.9232 21.9727 39.3008C21.7904 39.6784 21.5234 39.9941 21.1719 40.248C20.8203 40.4954 20.3939 40.6842 19.8926 40.8145C19.3913 40.9382 18.8249 41 18.1934 41ZM29.0625 41.1953C28.3268 41.1953 27.6595 41.0716 27.0605 40.8242C26.4681 40.5703 25.957 40.2155 25.5273 39.7598C25.1042 39.304 24.7786 38.7637 24.5508 38.1387C24.3229 37.5137 24.209 36.8301 24.209 36.0879V35.6777C24.209 34.8184 24.3359 34.0534 24.5898 33.3828C24.8438 32.7057 25.1888 32.1328 25.625 31.6641C26.0612 31.1953 26.556 30.8405 27.1094 30.5996C27.6628 30.3587 28.2357 30.2383 28.8281 30.2383C29.5833 30.2383 30.2344 30.3685 30.7812 30.6289C31.3346 30.8893 31.7871 31.2539 32.1387 31.7227C32.4902 32.1849 32.7507 32.7318 32.9199 33.3633C33.0892 33.9883 33.1738 34.6719 33.1738 35.4141V36.2246H25.2832V34.75H31.3672V34.6133C31.3411 34.1445 31.2435 33.6888 31.0742 33.2461C30.9115 32.8034 30.651 32.4388 30.293 32.1523C29.9349 31.8659 29.4466 31.7227 28.8281 31.7227C28.418 31.7227 28.0404 31.8105 27.6953 31.9863C27.3503 32.1556 27.054 32.4095 26.8066 32.748C26.5592 33.0866 26.3672 33.5 26.2305 33.9883C26.0938 34.4766 26.0254 35.0397 26.0254 35.6777V36.0879C26.0254 36.5892 26.0938 37.0612 26.2305 37.5039C26.3737 37.9401 26.5788 38.3242 26.8457 38.6562C27.1191 38.9883 27.4479 39.2487 27.832 39.4375C28.2227 39.6263 28.6654 39.7207 29.1602 39.7207C29.7982 39.7207 30.3385 39.5905 30.7812 39.3301C31.224 39.0697 31.6113 38.7214 31.9434 38.2852L33.0371 39.1543C32.8092 39.4993 32.5195 39.8281 32.168 40.1406C31.8164 40.4531 31.3835 40.707 30.8691 40.9023C30.3613 41.0977 29.7591 41.1953 29.0625 41.1953ZM39.4727 30.4336V41H37.6562V30.4336H39.4727ZM43.0176 30.4336V31.8984H34.1797V30.4336H43.0176Z" fill="white"/>
</svg>
