<svg width="97" height="53" viewBox="0 0 97 53" fill="none" xmlns="http://www.w3.org/2000/svg">
<path d="M73.7143 37L67.7143 42.1429L66 28L79.7143 31.8571L73.7143 37ZM73.7143 37L81 46" stroke="black" stroke-width="1.7"/>
<path d="M3.61328 14.7383L10.6152 3.78125H12.5V18H10.6152V7.0332L3.61328 18H1.73828V3.78125H3.61328V14.7383ZM19.5996 12.9512H17.6562V11.8379H19.4531C19.9544 11.8379 20.3516 11.776 20.6445 11.6523C20.9375 11.5221 21.1458 11.3431 21.2695 11.1152C21.3932 10.8874 21.4551 10.6204 21.4551 10.3145C21.4551 10.041 21.3835 9.78385 21.2402 9.54297C21.1035 9.29557 20.8822 9.09701 20.5762 8.94727C20.2702 8.79102 19.86 8.71289 19.3457 8.71289C18.929 8.71289 18.5514 8.78776 18.2129 8.9375C17.8743 9.08073 17.6042 9.2793 17.4023 9.5332C17.207 9.7806 17.1094 10.0605 17.1094 10.373H15.3027C15.3027 9.72852 15.485 9.17513 15.8496 8.71289C16.2207 8.24414 16.7122 7.88281 17.3242 7.62891C17.9427 7.375 18.6165 7.24805 19.3457 7.24805C19.9577 7.24805 20.5046 7.31641 20.9863 7.45312C21.4746 7.58333 21.888 7.77865 22.2266 8.03906C22.5651 8.29297 22.8223 8.61198 22.998 8.99609C23.1803 9.3737 23.2715 9.81315 23.2715 10.3145C23.2715 10.6725 23.1868 11.0111 23.0176 11.3301C22.8483 11.6491 22.6042 11.9323 22.2852 12.1797C21.9661 12.4206 21.5788 12.6094 21.123 12.7461C20.6738 12.8828 20.166 12.9512 19.5996 12.9512ZM17.6562 12.2676H19.5996C20.2311 12.2676 20.7878 12.3294 21.2695 12.4531C21.7513 12.5703 22.1549 12.7461 22.4805 12.9805C22.806 13.2148 23.0501 13.5046 23.2129 13.8496C23.3822 14.1882 23.4668 14.5788 23.4668 15.0215C23.4668 15.5163 23.3659 15.9622 23.1641 16.3594C22.9688 16.75 22.6888 17.082 22.3242 17.3555C21.9596 17.6289 21.5234 17.8372 21.0156 17.9805C20.5143 18.1237 19.9577 18.1953 19.3457 18.1953C18.6621 18.1953 17.998 18.0781 17.3535 17.8438C16.709 17.6094 16.1784 17.248 15.7617 16.7598C15.3451 16.265 15.1367 15.6367 15.1367 14.875H16.9434C16.9434 15.194 17.0443 15.4967 17.2461 15.7832C17.4479 16.0697 17.7279 16.3008 18.0859 16.4766C18.4505 16.6523 18.8704 16.7402 19.3457 16.7402C19.8535 16.7402 20.2767 16.6621 20.6152 16.5059C20.9538 16.3496 21.2077 16.1413 21.377 15.8809C21.5527 15.6204 21.6406 15.3372 21.6406 15.0312C21.6406 14.6341 21.5625 14.3151 21.4062 14.0742C21.25 13.8333 21.0091 13.6576 20.6836 13.5469C20.3646 13.4297 19.9544 13.3711 19.4531 13.3711H17.6562V12.2676ZM31.8848 15.5977L35.4785 7.43359H37.2168L32.5098 18H31.2598L26.5723 7.43359H28.3105L31.8848 15.5977ZM27.7832 7.43359V18H25.9766V7.43359H27.7832ZM35.9277 18V7.43359H37.7441V18H35.9277ZM45.0391 18.1953C44.3034 18.1953 43.6361 18.0716 43.0371 17.8242C42.4447 17.5703 41.9336 17.2155 41.5039 16.7598C41.0807 16.304 40.7552 15.7637 40.5273 15.1387C40.2995 14.5137 40.1855 13.8301 40.1855 13.0879V12.6777C40.1855 11.8184 40.3125 11.0534 40.5664 10.3828C40.8203 9.70573 41.1654 9.13281 41.6016 8.66406C42.0378 8.19531 42.5326 7.84049 43.0859 7.59961C43.6393 7.35872 44.2122 7.23828 44.8047 7.23828C45.5599 7.23828 46.2109 7.36849 46.7578 7.62891C47.3112 7.88932 47.7637 8.25391 48.1152 8.72266C48.4668 9.1849 48.7272 9.73177 48.8965 10.3633C49.0658 10.9883 49.1504 11.6719 49.1504 12.4141V13.2246H41.2598V11.75H47.3438V11.6133C47.3177 11.1445 47.2201 10.6888 47.0508 10.2461C46.888 9.80339 46.6276 9.4388 46.2695 9.15234C45.9115 8.86589 45.4232 8.72266 44.8047 8.72266C44.3945 8.72266 44.0169 8.81055 43.6719 8.98633C43.3268 9.1556 43.0306 9.40951 42.7832 9.74805C42.5358 10.0866 42.3438 10.5 42.207 10.9883C42.0703 11.4766 42.002 12.0397 42.002 12.6777V13.0879C42.002 13.5892 42.0703 14.0612 42.207 14.5039C42.3503 14.9401 42.5553 15.3242 42.8223 15.6562C43.0957 15.9883 43.4245 16.2487 43.8086 16.4375C44.1992 16.6263 44.6419 16.7207 45.1367 16.7207C45.7747 16.7207 46.3151 16.5905 46.7578 16.3301C47.2005 16.0697 47.5879 15.7214 47.9199 15.2852L49.0137 16.1543C48.7858 16.4993 48.4961 16.8281 48.1445 17.1406C47.793 17.4531 47.36 17.707 46.8457 17.9023C46.3379 18.0977 45.7357 18.1953 45.0391 18.1953ZM58.4277 12.0137V13.4785H52.8418V12.0137H58.4277ZM53.2227 7.43359V18H51.416V7.43359H53.2227ZM59.8926 7.43359V18H58.0762V7.43359H59.8926ZM64.7559 15.1387L69.6289 7.43359H71.4453V18H69.6289V10.2949L64.7559 18H62.959V7.43359H64.7559V15.1387ZM78.6523 7.43359V18H76.8359V7.43359H78.6523ZM82.1973 7.43359V8.89844H73.3594V7.43359H82.1973ZM85.459 11.0664H88.6328C89.4857 11.0664 90.2051 11.2161 90.791 11.5156C91.377 11.8086 91.8197 12.2155 92.1191 12.7363C92.4251 13.2507 92.5781 13.8366 92.5781 14.4941C92.5781 14.9824 92.4935 15.4414 92.3242 15.8711C92.1549 16.2943 91.901 16.6654 91.5625 16.9844C91.2305 17.3034 90.8171 17.554 90.3223 17.7363C89.834 17.9121 89.2708 18 88.6328 18H84.1406V7.43359H85.9473V16.5156H88.6328C89.1536 16.5156 89.5703 16.4212 89.8828 16.2324C90.1953 16.0436 90.4199 15.7995 90.5566 15.5C90.6934 15.2005 90.7617 14.888 90.7617 14.5625C90.7617 14.2435 90.6934 13.931 90.5566 13.625C90.4199 13.319 90.1953 13.0651 89.8828 12.8633C89.5703 12.6549 89.1536 12.5508 88.6328 12.5508H85.459V11.0664Z" fill="black"/>
<path d="M10.5332 41V30.4336H12.3398V39.5156H17.2031V30.4336H19.0195V41H10.5332ZM20.2695 39.5156L20.0938 44.1348H18.4824V41H17.1055V39.5156H20.2695ZM27.1934 36.3516H23.7266L23.707 34.9062H26.5391C27.099 34.9062 27.5645 34.8509 27.9355 34.7402C28.3132 34.6296 28.5964 34.4635 28.7852 34.2422C28.974 34.0208 29.0684 33.7474 29.0684 33.4219C29.0684 33.168 29.013 32.9466 28.9023 32.7578C28.7982 32.5625 28.6387 32.403 28.4238 32.2793C28.209 32.1491 27.9421 32.0547 27.623 31.9961C27.3105 31.931 26.9427 31.8984 26.5195 31.8984H24.2051V41H22.3984V30.4336H26.5195C27.1901 30.4336 27.7923 30.4922 28.3262 30.6094C28.8665 30.7266 29.3255 30.9056 29.7031 31.1465C30.0872 31.3809 30.3802 31.6803 30.582 32.0449C30.7839 32.4095 30.8848 32.8392 30.8848 33.334C30.8848 33.653 30.8197 33.9557 30.6895 34.2422C30.5592 34.5286 30.3672 34.7826 30.1133 35.0039C29.8594 35.2253 29.5469 35.4076 29.1758 35.5508C28.8047 35.6875 28.3783 35.7754 27.8965 35.8145L27.1934 36.3516ZM27.1934 41H23.0723L23.9707 39.5352H27.1934C27.6947 39.5352 28.1113 39.4733 28.4434 39.3496C28.7754 39.2194 29.0228 39.0371 29.1855 38.8027C29.3548 38.5618 29.4395 38.2754 29.4395 37.9434C29.4395 37.6113 29.3548 37.3281 29.1855 37.0938C29.0228 36.8529 28.7754 36.6706 28.4434 36.5469C28.1113 36.4167 27.6947 36.3516 27.1934 36.3516H24.4492L24.4688 34.9062H27.8965L28.5508 35.4531C29.1302 35.4987 29.6217 35.6419 30.0254 35.8828C30.429 36.1237 30.735 36.4297 30.9434 36.8008C31.1517 37.1654 31.2559 37.5625 31.2559 37.9922C31.2559 38.487 31.1615 38.9232 30.9727 39.3008C30.7904 39.6784 30.5234 39.9941 30.1719 40.248C29.8203 40.4954 29.3939 40.6842 28.8926 40.8145C28.3913 40.9382 27.8249 41 27.1934 41ZM38.0625 41.1953C37.3268 41.1953 36.6595 41.0716 36.0605 40.8242C35.4681 40.5703 34.957 40.2155 34.5273 39.7598C34.1042 39.304 33.7786 38.7637 33.5508 38.1387C33.3229 37.5137 33.209 36.8301 33.209 36.0879V35.6777C33.209 34.8184 33.3359 34.0534 33.5898 33.3828C33.8438 32.7057 34.1888 32.1328 34.625 31.6641C35.0612 31.1953 35.556 30.8405 36.1094 30.5996C36.6628 30.3587 37.2357 30.2383 37.8281 30.2383C38.5833 30.2383 39.2344 30.3685 39.7812 30.6289C40.3346 30.8893 40.7871 31.2539 41.1387 31.7227C41.4902 32.1849 41.7507 32.7318 41.9199 33.3633C42.0892 33.9883 42.1738 34.6719 42.1738 35.4141V36.2246H34.2832V34.75H40.3672V34.6133C40.3411 34.1445 40.2435 33.6888 40.0742 33.2461C39.9115 32.8034 39.651 32.4388 39.293 32.1523C38.9349 31.8659 38.4466 31.7227 37.8281 31.7227C37.418 31.7227 37.0404 31.8105 36.6953 31.9863C36.3503 32.1556 36.054 32.4095 35.8066 32.748C35.5592 33.0866 35.3672 33.5 35.2305 33.9883C35.0938 34.4766 35.0254 35.0397 35.0254 35.6777V36.0879C35.0254 36.5892 35.0938 37.0612 35.2305 37.5039C35.3737 37.9401 35.5788 38.3242 35.8457 38.6562C36.1191 38.9883 36.4479 39.2487 36.832 39.4375C37.2227 39.6263 37.6654 39.7207 38.1602 39.7207C38.7982 39.7207 39.3385 39.5905 39.7812 39.3301C40.224 39.0697 40.6113 38.7214 40.9434 38.2852L42.0371 39.1543C41.8092 39.4993 41.5195 39.8281 41.168 40.1406C40.8164 40.4531 40.3835 40.707 39.8691 40.9023C39.3613 41.0977 38.7591 41.1953 38.0625 41.1953ZM48.4727 30.4336V41H46.6562V30.4336H48.4727ZM52.0176 30.4336V31.8984H43.1797V30.4336H52.0176Z" fill="black"/>
</svg>
